<?xml version="1.0" encoding="utf-8" standalone="no"?>
<!DOCTYPE svg PUBLIC "-//W3C//DTD SVG 1.1//EN"
  "http://www.w3.org/Graphics/SVG/1.1/DTD/svg11.dtd">
<svg xmlns:xlink="http://www.w3.org/1999/xlink" width="540pt" height="244.8pt" viewBox="0 0 540 244.8" xmlns="http://www.w3.org/2000/svg" version="1.1">
 <metadata>
  <rdf:RDF xmlns:dc="http://purl.org/dc/elements/1.1/" xmlns:cc="http://creativecommons.org/ns#" xmlns:rdf="http://www.w3.org/1999/02/22-rdf-syntax-ns#">
   <cc:Work>
    <dc:type rdf:resource="http://purl.org/dc/dcmitype/StillImage"/>
    <dc:format>image/svg+xml</dc:format>
   </cc:Work>
  </rdf:RDF>
 </metadata>
 <defs>
  <style type="text/css">*{stroke-linejoin: round; stroke-linecap: butt}</style>
 </defs>
 <g id="figure_1">
  <g id="patch_1">
   <path d="M 0 244.8 
L 540 244.8 
L 540 0 
L 0 0 
z
" style="fill: #fcfcfb"/>
  </g>
  <g id="axes_1">
   <g id="patch_2">
    <path d="M 44.842109 204.917891 
L 529.2 204.917891 
L 529.2 25.157422 
L 44.842109 25.157422 
z
" style="fill: #fcfcfb"/>
   </g>
   <g id="matplotlib.axis_1">
    <g id="xtick_1">
     <g id="line2d_1">
      <path d="M 66.775245 204.917891 
L 66.775245 25.157422 
" clip-path="url(#pabb004f4d3)" style="fill: none; stroke: #e4e3df; stroke-width: 0.6; stroke-linecap: square"/>
     </g>
     <g id="line2d_2">
      <defs>
       <path id="mc27e4a8273" d="M 0 0 
L 0 3.5 
" style="stroke: #52514e; stroke-width: 0.8"/>
      </defs>
      <g>
       <use xlink:href="#mc27e4a8273" x="66.775245" y="204.917891" style="fill: #52514e; stroke: #52514e; stroke-width: 0.8"/>
      </g>
     </g>
     <g id="text_1">
      <!-- 0 -->
      <g style="fill: #52514e" transform="translate(64.230245 217.996016) scale(0.08 -0.08)">
       <defs>
        <path id="DejaVuSans-13" d="M 2034 4250 
Q 1547 4250 1301 3770 
Q 1056 3291 1056 2328 
Q 1056 1369 1301 889 
Q 1547 409 2034 409 
Q 2525 409 2770 889 
Q 3016 1369 3016 2328 
Q 3016 3291 2770 3770 
Q 2525 4250 2034 4250 
z
M 2034 4750 
Q 2819 4750 3233 4129 
Q 3647 3509 3647 2328 
Q 3647 1150 3233 529 
Q 2819 -91 2034 -91 
Q 1250 -91 836 529 
Q 422 1150 422 2328 
Q 422 3509 836 4129 
Q 1250 4750 2034 4750 
z
" transform="scale(0.015625)"/>
       </defs>
       <use xlink:href="#DejaVuSans-13"/>
      </g>
     </g>
    </g>
    <g id="xtick_2">
     <g id="line2d_3">
      <path d="M 122.196938 204.917891 
L 122.196938 25.157422 
" clip-path="url(#pabb004f4d3)" style="fill: none; stroke: #e4e3df; stroke-width: 0.6; stroke-linecap: square"/>
     </g>
     <g id="line2d_4">
      <g>
       <use xlink:href="#mc27e4a8273" x="122.196938" y="204.917891" style="fill: #52514e; stroke: #52514e; stroke-width: 0.8"/>
      </g>
     </g>
     <g id="text_2">
      <!-- 2 -->
      <g style="fill: #52514e" transform="translate(119.651938 217.996016) scale(0.08 -0.08)">
       <defs>
        <path id="DejaVuSans-15" d="M 1228 531 
L 3431 531 
L 3431 0 
L 469 0 
L 469 531 
Q 828 903 1448 1529 
Q 2069 2156 2228 2338 
Q 2531 2678 2651 2914 
Q 2772 3150 2772 3378 
Q 2772 3750 2511 3984 
Q 2250 4219 1831 4219 
Q 1534 4219 1204 4116 
Q 875 4013 500 3803 
L 500 4441 
Q 881 4594 1212 4672 
Q 1544 4750 1819 4750 
Q 2544 4750 2975 4387 
Q 3406 4025 3406 3419 
Q 3406 3131 3298 2873 
Q 3191 2616 2906 2266 
Q 2828 2175 2409 1742 
Q 1991 1309 1228 531 
z
" transform="scale(0.015625)"/>
       </defs>
       <use xlink:href="#DejaVuSans-15"/>
      </g>
     </g>
    </g>
    <g id="xtick_3">
     <g id="line2d_5">
      <path d="M 177.618632 204.917891 
L 177.618632 25.157422 
" clip-path="url(#pabb004f4d3)" style="fill: none; stroke: #e4e3df; stroke-width: 0.6; stroke-linecap: square"/>
     </g>
     <g id="line2d_6">
      <g>
       <use xlink:href="#mc27e4a8273" x="177.618632" y="204.917891" style="fill: #52514e; stroke: #52514e; stroke-width: 0.8"/>
      </g>
     </g>
     <g id="text_3">
      <!-- 4 -->
      <g style="fill: #52514e" transform="translate(175.073632 217.996016) scale(0.08 -0.08)">
       <defs>
        <path id="DejaVuSans-17" d="M 2419 4116 
L 825 1625 
L 2419 1625 
L 2419 4116 
z
M 2253 4666 
L 3047 4666 
L 3047 1625 
L 3713 1625 
L 3713 1100 
L 3047 1100 
L 3047 0 
L 2419 0 
L 2419 1100 
L 313 1100 
L 313 1709 
L 2253 4666 
z
" transform="scale(0.015625)"/>
       </defs>
       <use xlink:href="#DejaVuSans-17"/>
      </g>
     </g>
    </g>
    <g id="xtick_4">
     <g id="line2d_7">
      <path d="M 233.040325 204.917891 
L 233.040325 25.157422 
" clip-path="url(#pabb004f4d3)" style="fill: none; stroke: #e4e3df; stroke-width: 0.6; stroke-linecap: square"/>
     </g>
     <g id="line2d_8">
      <g>
       <use xlink:href="#mc27e4a8273" x="233.040325" y="204.917891" style="fill: #52514e; stroke: #52514e; stroke-width: 0.8"/>
      </g>
     </g>
     <g id="text_4">
      <!-- 6 -->
      <g style="fill: #52514e" transform="translate(230.495325 217.996016) scale(0.08 -0.08)">
       <defs>
        <path id="DejaVuSans-19" d="M 2113 2584 
Q 1688 2584 1439 2293 
Q 1191 2003 1191 1497 
Q 1191 994 1439 701 
Q 1688 409 2113 409 
Q 2538 409 2786 701 
Q 3034 994 3034 1497 
Q 3034 2003 2786 2293 
Q 2538 2584 2113 2584 
z
M 3366 4563 
L 3366 3988 
Q 3128 4100 2886 4159 
Q 2644 4219 2406 4219 
Q 1781 4219 1451 3797 
Q 1122 3375 1075 2522 
Q 1259 2794 1537 2939 
Q 1816 3084 2150 3084 
Q 2853 3084 3261 2657 
Q 3669 2231 3669 1497 
Q 3669 778 3244 343 
Q 2819 -91 2113 -91 
Q 1303 -91 875 529 
Q 447 1150 447 2328 
Q 447 3434 972 4092 
Q 1497 4750 2381 4750 
Q 2619 4750 2861 4703 
Q 3103 4656 3366 4563 
z
" transform="scale(0.015625)"/>
       </defs>
       <use xlink:href="#DejaVuSans-19"/>
      </g>
     </g>
    </g>
    <g id="xtick_5">
     <g id="line2d_9">
      <path d="M 288.462019 204.917891 
L 288.462019 25.157422 
" clip-path="url(#pabb004f4d3)" style="fill: none; stroke: #e4e3df; stroke-width: 0.6; stroke-linecap: square"/>
     </g>
     <g id="line2d_10">
      <g>
       <use xlink:href="#mc27e4a8273" x="288.462019" y="204.917891" style="fill: #52514e; stroke: #52514e; stroke-width: 0.8"/>
      </g>
     </g>
     <g id="text_5">
      <!-- 8 -->
      <g style="fill: #52514e" transform="translate(285.917019 217.996016) scale(0.08 -0.08)">
       <defs>
        <path id="DejaVuSans-1b" d="M 2034 2216 
Q 1584 2216 1326 1975 
Q 1069 1734 1069 1313 
Q 1069 891 1326 650 
Q 1584 409 2034 409 
Q 2484 409 2743 651 
Q 3003 894 3003 1313 
Q 3003 1734 2745 1975 
Q 2488 2216 2034 2216 
z
M 1403 2484 
Q 997 2584 770 2862 
Q 544 3141 544 3541 
Q 544 4100 942 4425 
Q 1341 4750 2034 4750 
Q 2731 4750 3128 4425 
Q 3525 4100 3525 3541 
Q 3525 3141 3298 2862 
Q 3072 2584 2669 2484 
Q 3125 2378 3379 2068 
Q 3634 1759 3634 1313 
Q 3634 634 3220 271 
Q 2806 -91 2034 -91 
Q 1263 -91 848 271 
Q 434 634 434 1313 
Q 434 1759 690 2068 
Q 947 2378 1403 2484 
z
M 1172 3481 
Q 1172 3119 1398 2916 
Q 1625 2713 2034 2713 
Q 2441 2713 2670 2916 
Q 2900 3119 2900 3481 
Q 2900 3844 2670 4047 
Q 2441 4250 2034 4250 
Q 1625 4250 1398 4047 
Q 1172 3844 1172 3481 
z
" transform="scale(0.015625)"/>
       </defs>
       <use xlink:href="#DejaVuSans-1b"/>
      </g>
     </g>
    </g>
    <g id="xtick_6">
     <g id="line2d_11">
      <path d="M 343.883712 204.917891 
L 343.883712 25.157422 
" clip-path="url(#pabb004f4d3)" style="fill: none; stroke: #e4e3df; stroke-width: 0.6; stroke-linecap: square"/>
     </g>
     <g id="line2d_12">
      <g>
       <use xlink:href="#mc27e4a8273" x="343.883712" y="204.917891" style="fill: #52514e; stroke: #52514e; stroke-width: 0.8"/>
      </g>
     </g>
     <g id="text_6">
      <!-- 10 -->
      <g style="fill: #52514e" transform="translate(338.793712 217.996016) scale(0.08 -0.08)">
       <defs>
        <path id="DejaVuSans-14" d="M 794 531 
L 1825 531 
L 1825 4091 
L 703 3866 
L 703 4441 
L 1819 4666 
L 2450 4666 
L 2450 531 
L 3481 531 
L 3481 0 
L 794 0 
L 794 531 
z
" transform="scale(0.015625)"/>
       </defs>
       <use xlink:href="#DejaVuSans-14"/>
       <use xlink:href="#DejaVuSans-13" transform="translate(63.625 0)"/>
      </g>
     </g>
    </g>
    <g id="xtick_7">
     <g id="line2d_13">
      <path d="M 399.305406 204.917891 
L 399.305406 25.157422 
" clip-path="url(#pabb004f4d3)" style="fill: none; stroke: #e4e3df; stroke-width: 0.6; stroke-linecap: square"/>
     </g>
     <g id="line2d_14">
      <g>
       <use xlink:href="#mc27e4a8273" x="399.305406" y="204.917891" style="fill: #52514e; stroke: #52514e; stroke-width: 0.8"/>
      </g>
     </g>
     <g id="text_7">
      <!-- 12 -->
      <g style="fill: #52514e" transform="translate(394.215406 217.996016) scale(0.08 -0.08)">
       <use xlink:href="#DejaVuSans-14"/>
       <use xlink:href="#DejaVuSans-15" transform="translate(63.625 0)"/>
      </g>
     </g>
    </g>
    <g id="xtick_8">
     <g id="line2d_15">
      <path d="M 454.727099 204.917891 
L 454.727099 25.157422 
" clip-path="url(#pabb004f4d3)" style="fill: none; stroke: #e4e3df; stroke-width: 0.6; stroke-linecap: square"/>
     </g>
     <g id="line2d_16">
      <g>
       <use xlink:href="#mc27e4a8273" x="454.727099" y="204.917891" style="fill: #52514e; stroke: #52514e; stroke-width: 0.8"/>
      </g>
     </g>
     <g id="text_8">
      <!-- 14 -->
      <g style="fill: #52514e" transform="translate(449.637099 217.996016) scale(0.08 -0.08)">
       <use xlink:href="#DejaVuSans-14"/>
       <use xlink:href="#DejaVuSans-17" transform="translate(63.625 0)"/>
      </g>
     </g>
    </g>
    <g id="xtick_9">
     <g id="line2d_17">
      <path d="M 510.148793 204.917891 
L 510.148793 25.157422 
" clip-path="url(#pabb004f4d3)" style="fill: none; stroke: #e4e3df; stroke-width: 0.6; stroke-linecap: square"/>
     </g>
     <g id="line2d_18">
      <g>
       <use xlink:href="#mc27e4a8273" x="510.148793" y="204.917891" style="fill: #52514e; stroke: #52514e; stroke-width: 0.8"/>
      </g>
     </g>
     <g id="text_9">
      <!-- 16 -->
      <g style="fill: #52514e" transform="translate(505.058793 217.996016) scale(0.08 -0.08)">
       <use xlink:href="#DejaVuSans-14"/>
       <use xlink:href="#DejaVuSans-19" transform="translate(63.625 0)"/>
      </g>
     </g>
    </g>
    <g id="text_10">
     <!-- simulated time (hours) -->
     <g style="fill: #0b0b0b" transform="translate(235.604336 230.756484) scale(0.09 -0.09)">
      <defs>
       <path id="DejaVuSans-56" d="M 2834 3397 
L 2834 2853 
Q 2591 2978 2328 3040 
Q 2066 3103 1784 3103 
Q 1356 3103 1142 2972 
Q 928 2841 928 2578 
Q 928 2378 1081 2264 
Q 1234 2150 1697 2047 
L 1894 2003 
Q 2506 1872 2764 1633 
Q 3022 1394 3022 966 
Q 3022 478 2636 193 
Q 2250 -91 1575 -91 
Q 1294 -91 989 -36 
Q 684 19 347 128 
L 347 722 
Q 666 556 975 473 
Q 1284 391 1588 391 
Q 1994 391 2212 530 
Q 2431 669 2431 922 
Q 2431 1156 2273 1281 
Q 2116 1406 1581 1522 
L 1381 1569 
Q 847 1681 609 1914 
Q 372 2147 372 2553 
Q 372 3047 722 3315 
Q 1072 3584 1716 3584 
Q 2034 3584 2315 3537 
Q 2597 3491 2834 3397 
z
" transform="scale(0.015625)"/>
       <path id="DejaVuSans-4c" d="M 603 3500 
L 1178 3500 
L 1178 0 
L 603 0 
L 603 3500 
z
M 603 4863 
L 1178 4863 
L 1178 4134 
L 603 4134 
L 603 4863 
z
" transform="scale(0.015625)"/>
       <path id="DejaVuSans-50" d="M 3328 2828 
Q 3544 3216 3844 3400 
Q 4144 3584 4550 3584 
Q 5097 3584 5394 3201 
Q 5691 2819 5691 2113 
L 5691 0 
L 5113 0 
L 5113 2094 
Q 5113 2597 4934 2840 
Q 4756 3084 4391 3084 
Q 3944 3084 3684 2787 
Q 3425 2491 3425 1978 
L 3425 0 
L 2847 0 
L 2847 2094 
Q 2847 2600 2669 2842 
Q 2491 3084 2119 3084 
Q 1678 3084 1418 2786 
Q 1159 2488 1159 1978 
L 1159 0 
L 581 0 
L 581 3500 
L 1159 3500 
L 1159 2956 
Q 1356 3278 1631 3431 
Q 1906 3584 2284 3584 
Q 2666 3584 2933 3390 
Q 3200 3197 3328 2828 
z
" transform="scale(0.015625)"/>
       <path id="DejaVuSans-58" d="M 544 1381 
L 544 3500 
L 1119 3500 
L 1119 1403 
Q 1119 906 1312 657 
Q 1506 409 1894 409 
Q 2359 409 2629 706 
Q 2900 1003 2900 1516 
L 2900 3500 
L 3475 3500 
L 3475 0 
L 2900 0 
L 2900 538 
Q 2691 219 2414 64 
Q 2138 -91 1772 -91 
Q 1169 -91 856 284 
Q 544 659 544 1381 
z
M 1991 3584 
L 1991 3584 
z
" transform="scale(0.015625)"/>
       <path id="DejaVuSans-4f" d="M 603 4863 
L 1178 4863 
L 1178 0 
L 603 0 
L 603 4863 
z
" transform="scale(0.015625)"/>
       <path id="DejaVuSans-44" d="M 2194 1759 
Q 1497 1759 1228 1600 
Q 959 1441 959 1056 
Q 959 750 1161 570 
Q 1363 391 1709 391 
Q 2188 391 2477 730 
Q 2766 1069 2766 1631 
L 2766 1759 
L 2194 1759 
z
M 3341 1997 
L 3341 0 
L 2766 0 
L 2766 531 
Q 2569 213 2275 61 
Q 1981 -91 1556 -91 
Q 1019 -91 701 211 
Q 384 513 384 1019 
Q 384 1609 779 1909 
Q 1175 2209 1959 2209 
L 2766 2209 
L 2766 2266 
Q 2766 2663 2505 2880 
Q 2244 3097 1772 3097 
Q 1472 3097 1187 3025 
Q 903 2953 641 2809 
L 641 3341 
Q 956 3463 1253 3523 
Q 1550 3584 1831 3584 
Q 2591 3584 2966 3190 
Q 3341 2797 3341 1997 
z
" transform="scale(0.015625)"/>
       <path id="DejaVuSans-57" d="M 1172 4494 
L 1172 3500 
L 2356 3500 
L 2356 3053 
L 1172 3053 
L 1172 1153 
Q 1172 725 1289 603 
Q 1406 481 1766 481 
L 2356 481 
L 2356 0 
L 1766 0 
Q 1100 0 847 248 
Q 594 497 594 1153 
L 594 3053 
L 172 3053 
L 172 3500 
L 594 3500 
L 594 4494 
L 1172 4494 
z
" transform="scale(0.015625)"/>
       <path id="DejaVuSans-48" d="M 3597 1894 
L 3597 1613 
L 953 1613 
Q 991 1019 1311 708 
Q 1631 397 2203 397 
Q 2534 397 2845 478 
Q 3156 559 3463 722 
L 3463 178 
Q 3153 47 2828 -22 
Q 2503 -91 2169 -91 
Q 1331 -91 842 396 
Q 353 884 353 1716 
Q 353 2575 817 3079 
Q 1281 3584 2069 3584 
Q 2775 3584 3186 3129 
Q 3597 2675 3597 1894 
z
M 3022 2063 
Q 3016 2534 2758 2815 
Q 2500 3097 2075 3097 
Q 1594 3097 1305 2825 
Q 1016 2553 972 2059 
L 3022 2063 
z
" transform="scale(0.015625)"/>
       <path id="DejaVuSans-47" d="M 2906 2969 
L 2906 4863 
L 3481 4863 
L 3481 0 
L 2906 0 
L 2906 525 
Q 2725 213 2448 61 
Q 2172 -91 1784 -91 
Q 1150 -91 751 415 
Q 353 922 353 1747 
Q 353 2572 751 3078 
Q 1150 3584 1784 3584 
Q 2172 3584 2448 3432 
Q 2725 3281 2906 2969 
z
M 947 1747 
Q 947 1113 1208 752 
Q 1469 391 1925 391 
Q 2381 391 2643 752 
Q 2906 1113 2906 1747 
Q 2906 2381 2643 2742 
Q 2381 3103 1925 3103 
Q 1469 3103 1208 2742 
Q 947 2381 947 1747 
z
" transform="scale(0.015625)"/>
       <path id="DejaVuSans-3" transform="scale(0.015625)"/>
       <path id="DejaVuSans-b" d="M 1984 4856 
Q 1566 4138 1362 3434 
Q 1159 2731 1159 2009 
Q 1159 1288 1364 580 
Q 1569 -128 1984 -844 
L 1484 -844 
Q 1016 -109 783 600 
Q 550 1309 550 2009 
Q 550 2706 781 3412 
Q 1013 4119 1484 4856 
L 1984 4856 
z
" transform="scale(0.015625)"/>
       <path id="DejaVuSans-4b" d="M 3513 2113 
L 3513 0 
L 2938 0 
L 2938 2094 
Q 2938 2591 2744 2837 
Q 2550 3084 2163 3084 
Q 1697 3084 1428 2787 
Q 1159 2491 1159 1978 
L 1159 0 
L 581 0 
L 581 4863 
L 1159 4863 
L 1159 2956 
Q 1366 3272 1645 3428 
Q 1925 3584 2291 3584 
Q 2894 3584 3203 3211 
Q 3513 2838 3513 2113 
z
" transform="scale(0.015625)"/>
       <path id="DejaVuSans-52" d="M 1959 3097 
Q 1497 3097 1228 2736 
Q 959 2375 959 1747 
Q 959 1119 1226 758 
Q 1494 397 1959 397 
Q 2419 397 2687 759 
Q 2956 1122 2956 1747 
Q 2956 2369 2687 2733 
Q 2419 3097 1959 3097 
z
M 1959 3584 
Q 2709 3584 3137 3096 
Q 3566 2609 3566 1747 
Q 3566 888 3137 398 
Q 2709 -91 1959 -91 
Q 1206 -91 779 398 
Q 353 888 353 1747 
Q 353 2609 779 3096 
Q 1206 3584 1959 3584 
z
" transform="scale(0.015625)"/>
       <path id="DejaVuSans-55" d="M 2631 2963 
Q 2534 3019 2420 3045 
Q 2306 3072 2169 3072 
Q 1681 3072 1420 2755 
Q 1159 2438 1159 1844 
L 1159 0 
L 581 0 
L 581 3500 
L 1159 3500 
L 1159 2956 
Q 1341 3275 1631 3429 
Q 1922 3584 2338 3584 
Q 2397 3584 2469 3576 
Q 2541 3569 2628 3553 
L 2631 2963 
z
" transform="scale(0.015625)"/>
       <path id="DejaVuSans-c" d="M 513 4856 
L 1013 4856 
Q 1481 4119 1714 3412 
Q 1947 2706 1947 2009 
Q 1947 1309 1714 600 
Q 1481 -109 1013 -844 
L 513 -844 
Q 928 -128 1133 580 
Q 1338 1288 1338 2009 
Q 1338 2731 1133 3434 
Q 928 4138 513 4856 
z
" transform="scale(0.015625)"/>
      </defs>
      <use xlink:href="#DejaVuSans-56"/>
      <use xlink:href="#DejaVuSans-4c" transform="translate(52.09375 0)"/>
      <use xlink:href="#DejaVuSans-50" transform="translate(79.875 0)"/>
      <use xlink:href="#DejaVuSans-58" transform="translate(177.28125 0)"/>
      <use xlink:href="#DejaVuSans-4f" transform="translate(240.65625 0)"/>
      <use xlink:href="#DejaVuSans-44" transform="translate(268.4375 0)"/>
      <use xlink:href="#DejaVuSans-57" transform="translate(329.71875 0)"/>
      <use xlink:href="#DejaVuSans-48" transform="translate(368.921875 0)"/>
      <use xlink:href="#DejaVuSans-47" transform="translate(430.453125 0)"/>
      <use xlink:href="#DejaVuSans-3" transform="translate(493.9375 0)"/>
      <use xlink:href="#DejaVuSans-57" transform="translate(525.71875 0)"/>
      <use xlink:href="#DejaVuSans-4c" transform="translate(564.921875 0)"/>
      <use xlink:href="#DejaVuSans-50" transform="translate(592.703125 0)"/>
      <use xlink:href="#DejaVuSans-48" transform="translate(690.109375 0)"/>
      <use xlink:href="#DejaVuSans-3" transform="translate(751.640625 0)"/>
      <use xlink:href="#DejaVuSans-b" transform="translate(783.421875 0)"/>
      <use xlink:href="#DejaVuSans-4b" transform="translate(822.4375 0)"/>
      <use xlink:href="#DejaVuSans-52" transform="translate(885.8125 0)"/>
      <use xlink:href="#DejaVuSans-58" transform="translate(947 0)"/>
      <use xlink:href="#DejaVuSans-55" transform="translate(1010.375 0)"/>
      <use xlink:href="#DejaVuSans-56" transform="translate(1051.484375 0)"/>
      <use xlink:href="#DejaVuSans-c" transform="translate(1103.578125 0)"/>
     </g>
    </g>
   </g>
   <g id="matplotlib.axis_2">
    <g id="ytick_1">
     <g id="line2d_19">
      <path d="M 44.842109 182.712384 
L 529.2 182.712384 
" clip-path="url(#pabb004f4d3)" style="fill: none; stroke: #e4e3df; stroke-width: 0.6; stroke-linecap: square"/>
     </g>
     <g id="line2d_20">
      <defs>
       <path id="me9c9d98730" d="M 0 0 
L -3.5 0 
" style="stroke: #52514e; stroke-width: 0.8"/>
      </defs>
      <g>
       <use xlink:href="#me9c9d98730" x="44.842109" y="182.712384" style="fill: #52514e; stroke: #52514e; stroke-width: 0.8"/>
      </g>
     </g>
     <g id="text_11">
      <!-- 0.2 -->
      <g style="fill: #52514e" transform="translate(25.119609 185.751446) scale(0.08 -0.08)">
       <defs>
        <path id="DejaVuSans-11" d="M 684 794 
L 1344 794 
L 1344 0 
L 684 0 
L 684 794 
z
" transform="scale(0.015625)"/>
       </defs>
       <use xlink:href="#DejaVuSans-13"/>
       <use xlink:href="#DejaVuSans-11" transform="translate(63.625 0)"/>
       <use xlink:href="#DejaVuSans-15" transform="translate(95.40625 0)"/>
      </g>
     </g>
    </g>
    <g id="ytick_2">
     <g id="line2d_21">
      <path d="M 44.842109 145.286847 
L 529.2 145.286847 
" clip-path="url(#pabb004f4d3)" style="fill: none; stroke: #e4e3df; stroke-width: 0.6; stroke-linecap: square"/>
     </g>
     <g id="line2d_22">
      <g>
       <use xlink:href="#me9c9d98730" x="44.842109" y="145.286847" style="fill: #52514e; stroke: #52514e; stroke-width: 0.8"/>
      </g>
     </g>
     <g id="text_12">
      <!-- 0.4 -->
      <g style="fill: #52514e" transform="translate(25.119609 148.325909) scale(0.08 -0.08)">
       <use xlink:href="#DejaVuSans-13"/>
       <use xlink:href="#DejaVuSans-11" transform="translate(63.625 0)"/>
       <use xlink:href="#DejaVuSans-17" transform="translate(95.40625 0)"/>
      </g>
     </g>
    </g>
    <g id="ytick_3">
     <g id="line2d_23">
      <path d="M 44.842109 107.86131 
L 529.2 107.86131 
" clip-path="url(#pabb004f4d3)" style="fill: none; stroke: #e4e3df; stroke-width: 0.6; stroke-linecap: square"/>
     </g>
     <g id="line2d_24">
      <g>
       <use xlink:href="#me9c9d98730" x="44.842109" y="107.86131" style="fill: #52514e; stroke: #52514e; stroke-width: 0.8"/>
      </g>
     </g>
     <g id="text_13">
      <!-- 0.6 -->
      <g style="fill: #52514e" transform="translate(25.119609 110.900372) scale(0.08 -0.08)">
       <use xlink:href="#DejaVuSans-13"/>
       <use xlink:href="#DejaVuSans-11" transform="translate(63.625 0)"/>
       <use xlink:href="#DejaVuSans-19" transform="translate(95.40625 0)"/>
      </g>
     </g>
    </g>
    <g id="ytick_4">
     <g id="line2d_25">
      <path d="M 44.842109 70.435772 
L 529.2 70.435772 
" clip-path="url(#pabb004f4d3)" style="fill: none; stroke: #e4e3df; stroke-width: 0.6; stroke-linecap: square"/>
     </g>
     <g id="line2d_26">
      <g>
       <use xlink:href="#me9c9d98730" x="44.842109" y="70.435772" style="fill: #52514e; stroke: #52514e; stroke-width: 0.8"/>
      </g>
     </g>
     <g id="text_14">
      <!-- 0.8 -->
      <g style="fill: #52514e" transform="translate(25.119609 73.474835) scale(0.08 -0.08)">
       <use xlink:href="#DejaVuSans-13"/>
       <use xlink:href="#DejaVuSans-11" transform="translate(63.625 0)"/>
       <use xlink:href="#DejaVuSans-1b" transform="translate(95.40625 0)"/>
      </g>
     </g>
    </g>
    <g id="ytick_5">
     <g id="line2d_27">
      <path d="M 44.842109 33.010235 
L 529.2 33.010235 
" clip-path="url(#pabb004f4d3)" style="fill: none; stroke: #e4e3df; stroke-width: 0.6; stroke-linecap: square"/>
     </g>
     <g id="line2d_28">
      <g>
       <use xlink:href="#me9c9d98730" x="44.842109" y="33.010235" style="fill: #52514e; stroke: #52514e; stroke-width: 0.8"/>
      </g>
     </g>
     <g id="text_15">
      <!-- 1.0 -->
      <g style="fill: #52514e" transform="translate(25.119609 36.049298) scale(0.08 -0.08)">
       <use xlink:href="#DejaVuSans-14"/>
       <use xlink:href="#DejaVuSans-11" transform="translate(63.625 0)"/>
       <use xlink:href="#DejaVuSans-13" transform="translate(95.40625 0)"/>
      </g>
     </g>
    </g>
    <g id="text_16">
     <!-- Jain's index of utilisation -->
     <g style="fill: #0b0b0b" transform="translate(18.9575 169.834297) rotate(-90) scale(0.09 -0.09)">
      <defs>
       <path id="DejaVuSans-2d" d="M 628 4666 
L 1259 4666 
L 1259 325 
Q 1259 -519 939 -900 
Q 619 -1281 -91 -1281 
L -331 -1281 
L -331 -750 
L -134 -750 
Q 284 -750 456 -515 
Q 628 -281 628 325 
L 628 4666 
z
" transform="scale(0.015625)"/>
       <path id="DejaVuSans-51" d="M 3513 2113 
L 3513 0 
L 2938 0 
L 2938 2094 
Q 2938 2591 2744 2837 
Q 2550 3084 2163 3084 
Q 1697 3084 1428 2787 
Q 1159 2491 1159 1978 
L 1159 0 
L 581 0 
L 581 3500 
L 1159 3500 
L 1159 2956 
Q 1366 3272 1645 3428 
Q 1925 3584 2291 3584 
Q 2894 3584 3203 3211 
Q 3513 2838 3513 2113 
z
" transform="scale(0.015625)"/>
       <path id="DejaVuSans-a" d="M 1147 4666 
L 1147 2931 
L 616 2931 
L 616 4666 
L 1147 4666 
z
" transform="scale(0.015625)"/>
       <path id="DejaVuSans-5b" d="M 3513 3500 
L 2247 1797 
L 3578 0 
L 2900 0 
L 1881 1375 
L 863 0 
L 184 0 
L 1544 1831 
L 300 3500 
L 978 3500 
L 1906 2253 
L 2834 3500 
L 3513 3500 
z
" transform="scale(0.015625)"/>
       <path id="DejaVuSans-49" d="M 2375 4863 
L 2375 4384 
L 1825 4384 
Q 1516 4384 1395 4259 
Q 1275 4134 1275 3809 
L 1275 3500 
L 2222 3500 
L 2222 3053 
L 1275 3053 
L 1275 0 
L 697 0 
L 697 3053 
L 147 3053 
L 147 3500 
L 697 3500 
L 697 3744 
Q 697 4328 969 4595 
Q 1241 4863 1831 4863 
L 2375 4863 
z
" transform="scale(0.015625)"/>
      </defs>
      <use xlink:href="#DejaVuSans-2d"/>
      <use xlink:href="#DejaVuSans-44" transform="translate(29.5 0)"/>
      <use xlink:href="#DejaVuSans-4c" transform="translate(90.78125 0)"/>
      <use xlink:href="#DejaVuSans-51" transform="translate(118.5625 0)"/>
      <use xlink:href="#DejaVuSans-a" transform="translate(181.9375 0)"/>
      <use xlink:href="#DejaVuSans-56" transform="translate(209.421875 0)"/>
      <use xlink:href="#DejaVuSans-3" transform="translate(261.515625 0)"/>
      <use xlink:href="#DejaVuSans-4c" transform="translate(293.296875 0)"/>
      <use xlink:href="#DejaVuSans-51" transform="translate(321.078125 0)"/>
      <use xlink:href="#DejaVuSans-47" transform="translate(384.453125 0)"/>
      <use xlink:href="#DejaVuSans-48" transform="translate(447.9375 0)"/>
      <use xlink:href="#DejaVuSans-5b" transform="translate(507.71875 0)"/>
      <use xlink:href="#DejaVuSans-3" transform="translate(566.90625 0)"/>
      <use xlink:href="#DejaVuSans-52" transform="translate(598.6875 0)"/>
      <use xlink:href="#DejaVuSans-49" transform="translate(659.875 0)"/>
      <use xlink:href="#DejaVuSans-3" transform="translate(695.078125 0)"/>
      <use xlink:href="#DejaVuSans-58" transform="translate(726.859375 0)"/>
      <use xlink:href="#DejaVuSans-57" transform="translate(790.234375 0)"/>
      <use xlink:href="#DejaVuSans-4c" transform="translate(829.4375 0)"/>
      <use xlink:href="#DejaVuSans-4f" transform="translate(857.21875 0)"/>
      <use xlink:href="#DejaVuSans-4c" transform="translate(885 0)"/>
      <use xlink:href="#DejaVuSans-56" transform="translate(912.78125 0)"/>
      <use xlink:href="#DejaVuSans-44" transform="translate(964.875 0)"/>
      <use xlink:href="#DejaVuSans-57" transform="translate(1026.15625 0)"/>
      <use xlink:href="#DejaVuSans-4c" transform="translate(1065.359375 0)"/>
      <use xlink:href="#DejaVuSans-52" transform="translate(1093.140625 0)"/>
      <use xlink:href="#DejaVuSans-51" transform="translate(1154.328125 0)"/>
     </g>
    </g>
   </g>
   <g id="line2d_29">
    <path d="M 66.858377 196.74696 
L 67.911389 173.356 
L 67.9391 150.077315 
L 68.105365 127.678131 
L 68.881269 163.213679 
L 70.072835 143.883389 
L 71.347534 138.812229 
L 71.680064 120.716982 
L 71.707775 135.799473 
L 72.677655 142.629634 
L 73.675245 151.611762 
L 76.972836 123.879439 
L 78.108981 135.799473 
L 78.884885 132.711866 
L 81.545126 132.580877 
L 81.766813 121.559056 
L 82.154765 121.690045 
L 82.459584 124.160131 
L 82.515006 128.538919 
L 88.140307 131.345834 
L 89.054765 122.214003 
L 89.137898 115.23414 
L 89.608982 104.885979 
L 91.410187 102.284904 
L 91.521031 112.969895 
L 92.740308 115.140576 
L 96.453561 97.943542 
L 98.448742 100.357489 
L 99.723441 88.699434 
L 100.33308 84.170944 
L 100.527056 88.250328 
L 101.164405 88.250328 
L 103.60296 73.991198 
L 104.184888 79.00622 
L 104.933081 79.024933 
L 105.210189 77.602763 
L 105.293322 81.364029 
L 105.653563 74.365454 
L 106.152358 80.166412 
L 106.346334 77.191082 
L 107.149948 78.276422 
L 108.84031 76.70455 
L 109.200551 73.448528 
L 109.394527 76.236731 
L 110.558382 81.457593 
L 110.752358 79.455327 
L 111.278864 72.774868 
L 111.943925 71.090719 
L 112.11019 68.601921 
L 115.7126 73.298826 
L 116.294528 65.75758 
L 116.294528 61.079388 
L 118.954769 66.281538 
L 119.730673 69.013602 
L 120.728263 67.51658 
L 121.61501 75.619209 
L 121.892119 76.498709 
L 122.390914 76.592273 
L 123.610191 76.592273 
L 123.859589 75.918614 
L 124.496938 77.509199 
L 126.215011 84.152232 
L 126.298143 84.039955 
L 127.711397 85.929945 
L 128.930674 86.528753 
L 130.815011 87.932211 
L 131.202963 80.578093 
L 131.646337 73.59823 
L 132.117421 72.643879 
L 133.170433 68.227666 
L 133.69694 63.66175 
L 136.080072 59.825633 
L 136.301759 62.894527 
L 138.601759 62.033739 
L 138.768024 62.220867 
L 139.045133 64.485112 
L 139.349952 65.664016 
L 141.677663 65.720155 
L 143.063206 65.383325 
L 144.753567 75.619209 
L 145.945134 75.544358 
L 146.249953 72.232198 
L 146.277664 73.280113 
L 149.4367 77.808603 
L 150.849954 75.506933 
L 151.736701 82.7862 
L 152.290918 81.420168 
L 152.845135 75.768911 
L 153.260797 75.35723 
L 154.064412 79.118497 
L 155.97646 78.426125 
L 156.364412 83.759264 
L 158.442726 84.133519 
L 159.523449 81.10205 
L 159.606581 83.123029 
L 160.908991 76.16188 
L 161.989714 71.63339 
L 162.460798 72.438039 
L 162.543931 74.870699 
L 163.513811 76.012177 
L 164.289714 75.244954 
L 164.899353 74.402879 
L 165.536702 75.207528 
L 165.592124 76.592273 
L 167.892124 80.709082 
L 169.05598 87.202413 
L 170.192125 84.264508 
L 170.275257 87.033998 
L 170.857185 86.510041 
L 170.995739 84.283221 
L 171.078872 84.395498 
L 171.300559 84.395498 
L 172.935499 79.792157 
L 173.849956 79.773444 
L 175.013812 76.648412 
L 175.92827 76.610986 
L 176.565619 76.442571 
L 177.951162 73.149124 
L 178.062005 73.822783 
L 178.782487 76.57356 
L 179.53068 74.702284 
L 179.780078 75.581784 
L 179.890921 78.482263 
L 181.331885 78.482263 
L 181.387307 82.692636 
L 181.581283 81.663433 
L 182.440319 82.093827 
L 182.551162 82.898476 
L 184.851163 81.663433 
L 185.017428 80.914923 
L 185.239115 81.850561 
L 185.959597 81.850561 
L 187.428271 80.709082 
L 188.259597 84.5452 
L 188.896946 79.062359 
L 189.201766 78.313848 
L 191.058392 79.043646 
L 191.889718 81.270465 
L 193.386103 83.703125 
L 193.524658 85.144008 
L 196.184899 76.648412 
L 196.572851 75.319805 
L 197.958393 76.461284 
L 198.595743 75.974752 
L 199.537911 75.600496 
L 201.145141 79.268199 
L 201.78249 79.623742 
L 203.001767 82.748774 
L 203.472852 82.7862 
L 203.555984 79.361763 
L 205.357189 82.973327 
L 208.211406 87.052711 
L 208.710202 84.563913 
L 208.710202 86.079647 
L 211.730684 86.659743 
L 213.060805 92.161297 
L 215.19454 96.540085 
L 216.025865 97.288595 
L 217.300564 96.689787 
L 218.048757 99.534127 
L 218.824661 97.007904 
L 219.351167 98.317798 
L 219.545143 99.627691 
L 219.711408 102.865 
L 220.043938 104.231032 
L 220.071649 101.573819 
L 220.348757 100.76917 
L 224.533095 94.069999 
L 226.195746 93.153073 
L 227.802975 96.540085 
L 228.495746 102.490745 
L 229.049963 99.328287 
L 229.631891 97.569287 
L 229.659602 94.219701 
L 231.737915 95.623159 
L 232.513819 91.824467 
L 236.864422 91.038531 
L 237.418639 91.206945 
L 237.418639 92.797531 
L 237.806591 93.920297 
L 238.11141 97.550574 
L 238.277675 100.263925 
L 240.051169 93.452478 
L 240.494543 90.589424 
L 240.494543 89.335669 
L 241.187314 95.417318 
L 241.298158 93.620893 
L 243.099363 90.233882 
L 244.290929 89.335669 
L 244.900568 93.433765 
L 245.454785 93.433765 
L 248.613821 92.011595 
L 248.863219 93.415052 
L 249.694544 92.236148 
L 250.165628 89.07369 
L 252.382496 93.26535 
L 252.465629 97.737702 
L 252.798159 94.781084 
L 253.851171 101.854511 
L 254.710207 100.357489 
L 255.596954 100.357489 
L 256.206593 94.257127 
L 257.176473 96.446521 
L 259.06081 97.737702 
L 259.448762 92.367137 
L 259.947557 90.963679 
L 261.66563 86.603604 
L 262.33069 94.724946 
L 263.771654 97.232457 
L 264.381293 96.165829 
L 265.295751 97.232457 
L 265.378883 95.660584 
L 266.376474 94.724946 
L 267.56804 93.209212 
L 270.311414 89.298243 
L 271.031896 85.611828 
L 271.724667 84.919455 
L 272.694547 80.465816 
L 273.747559 80.316114 
L 277.100572 84.114806 
L 277.211415 84.41421 
L 277.405391 82.767487 
L 278.430692 84.395498 
L 280.259608 83.497285 
L 282.864428 79.754731 
L 283.723464 78.313848 
L 284.055994 78.856518 
L 286.189729 81.551157 
L 287.159609 87.090136 
L 287.880091 93.770595 
L 288.074067 98.710766 
L 290.069248 95.15534 
L 290.734308 90.813977 
L 291.731899 90.926254 
L 292.590935 83.721838 
L 292.812622 77.808603 
L 293.006598 82.505508 
L 293.699369 80.409678 
L 295.140333 79.34305 
L 295.916236 82.767487 
L 297.440333 77.284646 
L 299.324671 73.2614 
L 299.518647 71.764379 
L 299.823466 71.857943 
L 299.851177 69.256868 
L 301.209008 67.684995 
L 301.59696 68.452219 
L 302.539129 75.338518 
L 303.121057 70.978443 
L 303.287322 72.325762 
L 306.945154 83.066891 
L 308.192142 79.081071 
L 309.633106 81.513731 
L 309.743949 79.530178 
L 310.381299 75.432082 
L 311.822263 70.454485 
L 312.542745 74.421592 
L 312.764431 73.280113 
L 315.67407 79.829582 
L 316.533106 75.113964 
L 318.140336 71.446262 
L 318.223468 72.887145 
L 318.528287 70.248645 
L 318.971661 70.08023 
L 319.858408 71.053294 
L 320.135517 73.411103 
L 320.384914 71.427549 
L 322.019854 72.119922 
L 323.460818 75.843762 
L 325.123469 78.856518 
L 325.400577 78.500976 
L 327.257204 78.613252 
L 327.728289 77.453061 
L 329.252385 85.256285 
L 330.859614 82.748774 
L 331.413831 79.754731 
L 331.441542 78.950082 
L 332.106602 77.284646 
L 333.519856 79.848295 
L 334.018651 79.848295 
L 337.482507 85.836381 
L 340.447567 85.574402 
L 340.586121 88.437456 
L 341.057206 85.106583 
L 341.057206 79.754731 
L 341.777688 76.03089 
L 341.971664 73.878922 
L 343.16323 71.932794 
L 343.440339 70.922304 
L 343.578893 70.922304 
L 343.80058 64.297984 
L 344.659616 57.056143 
L 346.349978 52.546366 
L 347.680098 52.209536 
L 348.622267 48.429557 
L 348.816243 50.562812 
L 350.728291 51.96627 
L 350.756002 52.359238 
L 351.698171 52.359238 
L 353.3054 54.080813 
L 353.748774 53.800121 
L 353.915039 50.506674 
L 355.189738 52.84577 
L 355.356003 53.444578 
L 357.378895 50.506674 
L 359.540341 52.546366 
L 359.706606 56.438621 
L 360.122268 57.336834 
L 360.17769 51.573302 
L 360.260823 54.305366 
L 360.731907 53.912398 
L 360.870461 55.241004 
L 364.029498 57.785941 
L 365.08251 57.37426 
L 366.551185 61.303941 
L 366.689739 59.039696 
L 367.964438 61.434931 
L 369.405402 73.616943 
L 370.707812 70.791315 
L 373.423475 74.758422 
L 374.282511 69.930528 
L 374.698174 76.554848 
L 376.776487 86.678455 
L 377.219861 87.408253 
L 377.635524 84.844604 
L 379.409018 87.408253 
L 379.658415 80.802646 
L 380.101789 80.22255 
L 381.43191 79.230774 
L 383.011428 82.224817 
L 384.175283 82.224817 
L 384.70179 80.22255 
L 384.7295 76.947816 
L 384.895765 76.685837 
L 386.752392 70.248645 
L 388.082513 73.167837 
L 389.052392 66.150548 
L 389.274079 67.722421 
L 389.30179 65.196197 
L 392.627092 78.033156 
L 393.513839 71.090719 
L 395.121068 78.781667 
L 397.060827 79.867008 
L 397.753598 83.721838 
L 398.529502 79.380476 
L 399.222273 81.495019 
L 400.330707 80.35354 
L 400.496972 81.887987 
L 401.522274 76.498709 
L 401.827093 79.193348 
L 401.827093 82.206104 
L 402.38131 81.495019 
L 403.212635 80.128986 
L 403.517454 79.923146 
L 403.822274 75.226241 
L 404.598178 74.627433 
L 404.764443 77.602763 
L 405.817455 80.503242 
L 405.817455 79.567603 
L 406.815045 75.806337 
L 408.94878 73.560805 
L 409.91866 69.556272 
L 410.057214 66.955197 
L 414.435528 66.730644 
L 414.989745 62.931952 
L 416.818661 62.931952 
L 418.121071 70.585475 
L 418.592155 70.41706 
L 419.922276 69.107166 
L 420.365649 65.046495 
L 422.056011 67.572719 
L 422.305409 70.679038 
L 424.688541 71.988932 
L 424.827096 72.569028 
L 429.704205 76.798114 
L 432.946374 73.710507 
L 433.223482 75.170103 
L 433.888543 69.574985 
L 434.692157 70.28607 
L 435.911434 69.724687 
L 436.049989 72.119922 
L 436.909025 74.982975 
L 436.964447 77.228507 
L 437.629507 77.209795 
L 438.294567 80.072848 
L 439.513844 78.669391 
L 441.01023 75.956039 
L 441.34276 75.637922 
L 441.564447 78.182859 
L 442.257218 74.328028 
L 442.949989 75.843762 
L 442.9777 78.238997 
L 445.527098 75.525645 
L 445.998183 76.91039 
L 446.718665 78.482263 
L 448.603002 81.700859 
L 448.741556 82.7862 
L 449.074087 88.19419 
L 449.794569 85.649253 
L 449.988545 83.53471 
L 450.930713 86.060934 
L 451.706617 84.339359 
L 453.674087 91.019818 
L 453.868063 84.88203 
L 454.449991 81.195614 
L 454.560834 78.594539 
L 455.08734 81.644721 
L 455.863244 79.567603 
L 457.775292 83.890253 
L 458.052401 91.132094 
L 458.523485 97.12018 
L 458.523485 94.537818 
L 458.939148 91.599914 
L 459.022281 88.437456 
L 460.047582 87.707658 
L 460.29698 90.963679 
L 461.516257 90.963679 
L 461.571678 91.094669 
L 461.876498 86.472615 
L 462.846377 78.46355 
L 463.871679 78.12672 
L 464.093366 80.241263 
L 465.063245 76.349007 
L 465.949992 77.116231 
L 466.642763 75.600496 
L 467.030715 71.932794 
L 469.496981 72.868432 
L 470.79939 74.94555 
L 472.129511 74.421592 
L 473.182523 68.845187 
L 476.00903 64.428974 
L 476.230716 63.287495 
L 477.33915 60.274739 
L 478.724693 64.447686 
L 480.054813 61.90275 
L 482.327103 56.625749 
L 484.460838 59.694643 
L 485.070477 58.029207 
L 485.375296 59.526228 
L 487.093368 60.630282 
L 488.368067 61.116814 
L 488.894573 59.975335 
L 489.060838 65.626591 
L 490.640357 65.626591 
L 491.471682 64.971644 
L 492.05361 66.805495 
L 492.441562 63.530761 
L 494.935538 62.501558 
L 495.351201 62.520271 
L 497.318671 58.328611 
L 497.817466 58.328611 
L 498.094575 56.457334 
L 499.452406 60.555431 
L 499.868069 61.22909 
L 501.004213 66.337676 
L 501.253611 61.809186 
L 501.86325 60.480579 
L 501.974093 57.168419 
L 502.611443 55.371994 
L 503.221081 57.03743 
L 505.188551 54.286653 
L 505.825901 54.136951 
L 507.183732 69.163304 
L 507.183732 69.163304 
" clip-path="url(#pabb004f4d3)" style="fill: none; stroke: #2a78d6; stroke-width: 1.2; stroke-linecap: square"/>
   </g>
   <g id="line2d_30">
    <path d="M 66.858377 196.74696 
L 67.911389 173.449563 
L 67.9391 151.012954 
L 68.105365 127.678131 
L 68.881269 127.678131 
L 70.072835 143.883389 
L 71.347534 140.028559 
L 71.680064 133.722356 
L 71.707775 116.637598 
L 72.677655 99.739968 
L 73.675245 116.525321 
L 76.972836 106.17716 
L 78.108981 99.945808 
L 81.545126 71.521113 
L 81.628258 73.560805 
L 81.766813 82.898476 
L 82.154765 82.898476 
L 82.459584 69.051027 
L 82.515006 61.341367 
L 88.140307 94.575244 
L 89.054765 86.790732 
L 89.137898 88.549732 
L 89.608982 76.16188 
L 91.410187 82.393231 
L 91.521031 78.725529 
L 92.740308 96.802063 
L 96.453561 100.600755 
L 98.448742 96.165829 
L 98.919827 94.350691 
L 99.723441 102.902426 
L 100.33308 102.883713 
L 100.527056 94.388116 
L 101.164405 86.959147 
L 103.353562 88.73686 
L 103.60296 88.605871 
L 104.184888 98.074532 
L 104.933081 95.36118 
L 105.293322 77.228507 
L 105.653563 69.443996 
L 106.152358 78.426125 
L 106.346334 77.621475 
L 107.149948 72.980709 
L 108.84031 69.088453 
L 109.200551 67.909549 
L 109.394527 76.779401 
L 110.558382 73.72922 
L 110.752358 71.820517 
L 111.278864 71.820517 
L 111.943925 71.539826 
L 112.11019 71.951507 
L 115.7126 68.302517 
L 116.294528 66.76807 
L 116.294528 62.651261 
L 118.954769 74.159613 
L 119.730673 74.122188 
L 120.728263 75.450794 
L 121.61501 81.513731 
L 121.892119 79.417901 
L 122.390914 79.417901 
L 123.610191 88.568445 
L 123.859589 84.077381 
L 124.496938 84.301934 
L 126.215011 77.883454 
L 126.298143 75.675348 
L 127.711397 72.681305 
L 128.930674 70.679038 
L 130.815011 71.202996 
L 130.953566 72.887145 
L 131.202963 70.679038 
L 131.646337 64.784516 
L 132.117421 63.100367 
L 133.170433 69.930528 
L 133.69694 66.618368 
L 136.080072 66.955197 
L 136.301759 64.784516 
L 138.601759 60.199888 
L 138.768024 58.029207 
L 139.045133 58.029207 
L 139.349952 65.439463 
L 141.677663 71.333985 
L 143.063206 64.260559 
L 144.753567 68.115389 
L 145.945134 61.060675 
L 146.249953 60.854835 
L 146.277664 61.098101 
L 149.4367 61.491069 
L 150.849954 59.395239 
L 151.736701 61.491069 
L 152.290918 66.861634 
L 152.845135 64.821942 
L 153.260797 63.942442 
L 154.064412 66.038272 
L 155.97646 62.033739 
L 156.364412 73.953773 
L 158.442726 70.042804 
L 159.523449 70.042804 
L 159.606581 70.155081 
L 160.908991 68.040538 
L 161.989714 66.038272 
L 162.543931 68.003112 
L 163.513811 68.283804 
L 164.289714 69.724687 
L 164.899353 75.188816 
L 165.536702 75.619209 
L 165.592124 71.595964 
L 167.892124 77.265933 
L 169.05598 76.292869 
L 170.192125 78.145433 
L 170.275257 79.979284 
L 170.857185 78.762954 
L 170.995739 74.571294 
L 171.078872 74.81456 
L 171.300559 76.255443 
L 172.935499 73.72922 
L 173.849956 78.968795 
L 175.013812 76.985241 
L 175.429475 71.783092 
L 176.565619 77.284646 
L 177.951162 78.931369 
L 178.062005 77.771178 
L 178.782487 77.471773 
L 179.53068 75.450794 
L 179.780078 77.752465 
L 179.890921 83.515998 
L 181.331885 78.25771 
L 181.387307 76.872965 
L 181.581283 78.295135 
L 182.440319 80.484529 
L 182.551162 79.34305 
L 184.851163 79.586316 
L 185.239115 82.898476 
L 185.959597 83.703125 
L 187.428271 85.536977 
L 188.259597 85.536977 
L 188.896946 81.551157 
L 189.201766 77.453061 
L 191.058392 77.696327 
L 191.889718 78.762954 
L 193.386103 77.92088 
L 193.524658 80.765221 
L 195.270441 75.469507 
L 196.184899 81.962838 
L 196.572851 79.88572 
L 197.958393 82.11254 
L 199.537911 79.867008 
L 201.145141 79.754731 
L 201.78249 75.413369 
L 203.001767 75.413369 
L 203.472852 73.878922 
L 203.555984 69.163304 
L 204.747551 69.911815 
L 205.357189 72.119922 
L 208.211406 85.780243 
L 208.710202 81.289178 
L 208.710202 79.567603 
L 211.730684 79.155923 
L 213.060805 83.179168 
L 215.19454 90.49586 
L 216.025865 96.446521 
L 218.048757 88.961413 
L 218.824661 87.239839 
L 219.351167 89.74735 
L 219.628275 87.595381 
L 219.711408 89.298243 
L 220.043938 87.1837 
L 220.071649 89.485371 
L 220.348757 90.551999 
L 227.802975 86.322913 
L 228.495746 91.768329 
L 229.049963 87.239839 
L 229.631891 89.672498 
L 229.659602 88.755573 
L 229.659602 84.732328 
L 231.737915 84.245796 
L 232.513819 84.245796 
L 234.398157 82.337093 
L 236.864422 84.264508 
L 237.418639 83.515998 
L 237.418639 83.160455 
L 237.806591 78.332561 
L 237.917434 80.615518 
L 238.11141 79.081071 
L 238.277675 74.889411 
L 240.494543 66.917772 
L 240.494543 69.350432 
L 241.187314 66.824208 
L 241.298158 67.9844 
L 243.099363 66.244112 
L 244.290929 59.956622 
L 244.900568 59.937909 
L 245.454785 56.794164 
L 248.613821 67.909549 
L 248.863219 67.909549 
L 249.694544 68.433506 
L 250.165628 63.942442 
L 252.382496 58.178909 
L 252.382496 59.320388 
L 252.465629 56.288919 
L 252.798159 57.879505 
L 253.851171 60.985824 
L 254.710207 61.397505 
L 255.596954 61.397505 
L 256.206593 59.26425 
L 257.176473 58.609303 
L 259.06081 57.093568 
L 259.448762 60.368303 
L 259.947557 59.657218 
L 261.66563 57.991781 
L 262.33069 58.515739 
L 263.771654 57.523962 
L 264.381293 57.523962 
L 265.378883 59.189398 
L 266.376474 55.877238 
L 267.207799 55.877238 
L 267.56804 58.815143 
L 270.311414 62.744824 
L 271.031896 59.413952 
L 271.724667 57.074856 
L 272.694547 59.47009 
L 273.747559 62.538984 
L 277.100572 71.577251 
L 277.211415 69.705974 
L 277.405391 69.144591 
L 278.430692 63.66175 
L 280.259608 70.585475 
L 282.864428 73.916347 
L 283.723464 73.916347 
L 284.055994 73.448528 
L 286.189729 75.750199 
L 287.159609 73.72922 
L 287.880091 76.274156 
L 288.074067 74.739709 
L 289.792139 68.096676 
L 290.069248 68.227666 
L 290.734308 69.088453 
L 291.731899 63.062942 
L 292.590935 69.537559 
L 292.812622 66.113123 
L 293.006598 66.356389 
L 293.699369 61.846612 
L 295.140333 61.378792 
L 295.916236 61.378792 
L 297.440333 60.68642 
L 299.324671 59.994047 
L 299.518647 60.293452 
L 299.823466 61.921463 
L 299.851177 63.268782 
L 301.209008 64.87808 
L 301.59696 64.971644 
L 302.539129 58.197622 
L 302.733105 60.031473 
L 303.121057 65.009069 
L 303.287322 70.098943 
L 306.945154 72.812294 
L 308.192142 72.643879 
L 309.633106 68.115389 
L 309.743949 70.491911 
L 311.822263 66.917772 
L 312.542745 66.562229 
L 312.764431 60.499292 
L 315.67407 63.006803 
L 316.533106 60.181175 
L 318.140336 62.669973 
L 318.528287 58.646728 
L 318.971661 61.191665 
L 319.858408 65.327187 
L 320.135517 65.944708 
L 320.384914 62.744824 
L 322.019854 66.842921 
L 323.460818 64.466399 
L 325.123469 68.901325 
L 325.400577 67.1049 
L 327.257204 68.920038 
L 327.728289 70.566762 
L 329.252385 87.913498 
L 330.859614 85.4247 
L 331.413831 86.97786 
L 331.441542 83.796689 
L 332.106602 83.721838 
L 333.519856 85.050445 
L 334.018651 84.283221 
L 337.482507 85.031732 
L 340.447567 88.007062 
L 340.558411 89.260818 
L 340.586121 91.244371 
L 341.057206 87.913498 
L 341.057206 86.97786 
L 341.777688 84.676189 
L 341.971664 86.397764 
L 343.16323 86.397764 
L 343.329495 85.555689 
L 343.440339 87.801222 
L 343.578893 86.734594 
L 343.80058 81.626008 
L 344.659616 81.626008 
L 346.349978 80.278689 
L 347.680098 80.01671 
L 348.622267 75.918614 
L 348.816243 78.931369 
L 350.728291 75.581784 
L 350.756002 74.720996 
L 351.698171 76.311582 
L 353.3054 79.436614 
L 353.748774 82.056402 
L 353.915039 78.762954 
L 355.189738 85.349849 
L 355.356003 82.056402 
L 356.769256 82.636497 
L 357.378895 81.420168 
L 359.540341 78.051869 
L 359.706606 72.04507 
L 360.122268 70.529336 
L 360.17769 65.121346 
L 360.260823 66.842921 
L 360.731907 62.520271 
L 360.870461 64.840655 
L 364.029498 62.314431 
L 365.08251 62.613835 
L 366.551185 64.166995 
L 366.689739 60.836122 
L 367.964438 60.836122 
L 369.405402 54.885462 
L 370.707812 53.107749 
L 373.423475 58.216334 
L 373.811427 57.093568 
L 374.282511 63.66175 
L 374.698174 67.497868 
L 376.776487 72.961996 
L 377.219861 75.581784 
L 377.635524 72.232198 
L 379.409018 71.371411 
L 379.547572 68.021825 
L 379.658415 72.961996 
L 380.101789 69.762113 
L 381.43191 64.522537 
L 383.011428 68.265091 
L 384.175283 63.811452 
L 384.70179 60.480579 
L 384.7295 64.690952 
L 384.895765 63.081654 
L 386.752392 67.385591 
L 388.082513 63.437197 
L 389.052392 59.47009 
L 389.274079 60.68642 
L 389.30179 60.648994 
L 392.627092 59.601079 
L 393.375285 56.326345 
L 393.513839 58.066632 
L 395.121068 57.673664 
L 397.060827 61.098101 
L 397.753598 59.451377 
L 398.529502 56.532185 
L 399.222273 58.646728 
L 400.330707 55.315855 
L 400.496972 52.490227 
L 401.522274 55.315855 
L 401.827093 54.0621 
L 401.827093 55.671398 
L 402.38131 53.276164 
L 403.212635 54.791898 
L 403.517454 57.505249 
L 403.822274 56.083079 
L 404.598178 59.975335 
L 404.764443 56.738026 
L 405.817455 60.050186 
L 405.817455 59.339101 
L 406.815045 58.25376 
L 408.94878 56.326345 
L 409.91866 52.995472 
L 410.057214 54.773185 
L 414.435528 53.126461 
L 414.906613 54.211802 
L 414.989745 54.0621 
L 416.818661 54.0621 
L 418.121071 56.045653 
L 418.592155 52.733493 
L 419.922276 55.016451 
L 420.365649 51.685578 
L 422.056011 51.610727 
L 422.305409 49.776876 
L 424.688541 54.286653 
L 424.827096 57.392973 
L 429.704205 63.11908 
L 432.946374 58.908707 
L 433.223482 64.653527 
L 433.888543 65.570453 
L 434.692157 57.654951 
L 435.911434 55.521696 
L 436.049989 53.818834 
L 436.909025 55.914664 
L 436.964447 53.38844 
L 437.629507 48.822525 
L 438.294567 47.531344 
L 441.01023 45.809769 
L 441.34276 47.138375 
L 441.564447 47.138375 
L 442.257218 44.761854 
L 442.949989 53.687844 
L 442.9777 55.48427 
L 445.527098 47.269365 
L 446.718665 47.269365 
L 448.603002 49.645886 
L 448.741556 53.687844 
L 449.074087 57.168419 
L 449.794569 55.48427 
L 449.988545 53.800121 
L 450.930713 51.217759 
L 451.706617 54.230515 
L 453.868063 58.384749 
L 454.449991 57.392973 
L 454.560834 54.848036 
L 455.08734 59.320388 
L 457.775292 53.313589 
L 458.052401 53.818834 
L 458.523485 58.122771 
L 458.523485 57.636239 
L 458.939148 55.746249 
L 458.966859 59.357813 
L 459.022281 57.523962 
L 460.047582 55.259717 
L 460.29698 55.353281 
L 461.516257 55.353281 
L 461.682522 49.982716 
L 461.876498 50.600238 
L 462.846377 50.20727 
L 463.871679 52.995472 
L 464.037944 55.465557 
L 464.093366 54.380217 
L 465.063245 55.371994 
L 465.949992 54.904174 
L 466.642763 53.032898 
L 467.030715 53.968536 
L 469.496981 50.132418 
L 470.79939 48.766386 
L 472.129511 51.96627 
L 473.182523 57.71109 
L 476.00903 54.866749 
L 476.230716 54.39893 
L 477.33915 59.544941 
L 478.724693 55.334568 
L 480.054813 52.284387 
L 480.803006 57.168419 
L 482.327103 57.767228 
L 484.460838 58.833856 
L 485.070477 60.199888 
L 485.375296 67.51658 
L 487.093368 71.521113 
L 488.368067 69.518847 
L 488.894573 67.666283 
L 489.060838 64.728378 
L 490.640357 67.423017 
L 491.471682 72.344475 
L 492.05361 68.433506 
L 492.441562 67.179751 
L 495.351201 61.977601 
L 497.318671 64.578676 
L 497.817466 64.223133 
L 498.094575 60.929686 
L 499.424695 61.060675 
L 499.452406 59.788207 
L 499.868069 59.114547 
L 501.004213 68.957464 
L 501.087346 67.778559 
L 501.115057 65.196197 
L 501.253611 63.979867 
L 501.86325 64.316697 
L 501.974093 62.295718 
L 502.611443 67.31074 
L 503.221081 65.308474 
L 505.188551 65.570453 
L 505.825901 64.447686 
L 506.934335 71.558538 
L 507.183732 68.489644 
L 507.183732 68.489644 
" clip-path="url(#pabb004f4d3)" style="fill: none; stroke: #eb6834; stroke-width: 1.2; stroke-linecap: square"/>
   </g>
   <g id="line2d_31">
    <path d="M 66.858377 196.74696 
L 67.911389 173.449563 
L 67.9391 150.077315 
L 68.105365 127.977536 
L 68.881269 127.977536 
L 70.072835 104.605288 
L 71.347534 83.235306 
L 71.680064 88.418743 
L 71.707775 88.19419 
L 72.677655 66.169261 
L 73.675245 66.97391 
L 76.972836 89.27953 
L 78.108981 67.142325 
L 78.884885 64.821942 
L 81.545126 49.833014 
L 81.766813 41.543258 
L 82.154765 37.613576 
L 82.459584 36.846353 
L 82.515006 39.578417 
L 88.140307 54.136951 
L 89.054765 47.512631 
L 89.137898 49.589748 
L 89.608982 42.347907 
L 91.410187 40.701183 
L 91.521031 37.744566 
L 96.453561 37.744566 
L 98.448742 38.193672 
L 98.919827 36.453385 
L 100.527056 41.861375 
L 101.164405 41.861375 
L 103.353562 41.505832 
L 103.60296 39.054459 
L 104.184888 38.867332 
L 104.933081 39.952672 
L 105.210189 39.952672 
L 105.293322 40.233364 
L 105.653563 36.378534 
L 106.152358 38.025257 
L 106.346334 36.397246 
L 107.149948 37.201895 
L 108.84031 37.201895 
L 109.200551 37.894268 
L 109.394527 38.773768 
L 110.752358 36.15398 
L 112.11019 36.15398 
L 115.7126 40.776034 
L 116.294528 38.100108 
L 116.294528 36.15398 
L 118.954769 36.434672 
L 119.730673 36.15398 
L 120.728263 38.661491 
L 121.61501 41.655534 
L 121.892119 38.661491 
L 123.610191 38.661491 
L 123.859589 36.509523 
L 124.496938 37.651002 
L 126.215011 36.509523 
L 126.298143 37.651002 
L 127.711397 37.651002 
L 128.930674 38.081395 
L 130.953566 38.511789 
L 131.202963 35.985565 
L 131.646337 35.442895 
L 132.117421 35.442895 
L 133.170433 34.713097 
L 133.69694 33.814884 
L 136.080072 36.677938 
L 136.301759 36.079129 
L 138.601759 34.713097 
L 138.768024 33.814884 
L 139.045133 33.814884 
L 139.349952 35.349331 
L 141.677663 35.293193 
L 143.063206 36.696651 
L 144.670435 36.079129 
L 144.753567 35.293193 
L 145.945134 36.266257 
L 146.249953 35.031214 
L 146.277664 33.683895 
L 149.4367 35.031214 
L 150.849954 33.683895 
L 151.736701 34.39498 
L 152.290918 33.683895 
L 152.845135 34.656959 
L 153.260797 34.525969 
L 154.064412 33.814884 
L 155.97646 34.713097 
L 156.364412 35.742299 
L 158.442726 37.127044 
L 159.606581 40.214651 
L 160.908991 41.206428 
L 161.989714 38.343374 
L 162.460798 36.453385 
L 162.543931 38.418225 
L 163.513811 39.054459 
L 164.289714 38.773768 
L 164.899353 38.773768 
L 165.536702 36.996055 
L 165.592124 37.127044 
L 167.892124 40.252077 
L 169.05598 42.57246 
L 170.275257 46.838971 
L 170.857185 47.419067 
L 170.995739 48.223716 
L 171.078872 43.695226 
L 171.300559 44.481162 
L 172.935499 41.187715 
L 173.849956 41.711673 
L 175.013812 39.653268 
L 175.429475 41.69296 
L 175.92827 43.040279 
L 176.565619 42.497609 
L 177.951162 41.15029 
L 178.062005 38.118821 
L 178.782487 37.725853 
L 179.53068 36.659225 
L 179.780078 36.883778 
L 179.890921 42.048502 
L 181.387307 42.048502 
L 182.440319 43.096417 
L 182.551162 43.78879 
L 184.851163 40.869598 
L 185.017428 41.655534 
L 185.239115 40.233364 
L 185.959597 43.770077 
L 187.428271 46.071748 
L 188.259597 46.745407 
L 188.896946 43.975918 
L 189.201766 41.262566 
L 191.058392 43.732652 
L 191.889718 43.975918 
L 193.386103 41.468407 
L 193.524658 44.761854 
L 195.270441 44.443737 
L 196.184899 43.975918 
L 196.572851 41.468407 
L 197.958393 44.032056 
L 198.595743 40.907024 
L 199.537911 41.599396 
L 201.145141 43.133843 
L 201.78249 41.449694 
L 203.001767 44.892843 
L 203.472852 41.767811 
L 203.555984 40.064949 
L 204.747551 37.463874 
L 208.211406 41.262566 
L 208.710202 39.59713 
L 208.710202 38.04397 
L 211.730684 37.16447 
L 213.060805 37.16447 
L 215.19454 35.480321 
L 216.025865 36.846353 
L 217.245143 35.499033 
L 217.300564 35.555172 
L 218.048757 39.017034 
L 219.351167 35.311906 
L 219.545143 35.031214 
L 219.711408 36.659225 
L 220.043938 35.106065 
L 220.071649 35.461608 
L 220.348757 37.37031 
L 224.533095 35.835863 
L 226.195746 35.61131 
L 227.802975 35.854576 
L 228.495746 36.359821 
L 229.049963 35.330619 
L 229.659602 34.975076 
L 229.659602 34.488544 
L 231.737915 34.975076 
L 232.513819 34.975076 
L 234.398157 34.769235 
L 237.418639 33.814884 
L 237.418639 33.796171 
L 237.806591 33.796171 
L 237.917434 34.769235 
L 238.277675 33.683895 
L 240.051169 33.814884 
L 240.494543 34.656959 
L 240.494543 35.199629 
L 241.187314 34.844087 
L 241.298158 33.908448 
L 244.290929 34.076863 
L 244.900568 33.85231 
L 245.454785 33.983299 
L 248.863219 34.451118 
L 249.694544 33.871023 
L 250.165628 33.871023 
L 252.382496 34.93765 
L 252.465629 33.871023 
L 252.798159 33.702608 
L 253.851171 33.702608 
L 254.710207 33.814884 
L 255.596954 33.814884 
L 256.206593 35.180916 
L 259.06081 35.049927 
L 259.448762 35.94814 
L 259.947557 35.049927 
L 261.66563 34.975076 
L 262.33069 34.39498 
L 264.381293 34.488544 
L 265.378883 35.06864 
L 266.376474 35.386757 
L 267.207799 35.386757 
L 267.56804 35.854576 
L 270.311414 40.532768 
L 271.031896 38.3808 
L 271.724667 38.3808 
L 272.694547 44.350173 
L 273.747559 45.379375 
L 277.100572 43.676513 
L 277.211415 43.919779 
L 277.405391 40.588906 
L 278.430692 38.062683 
L 280.259608 36.341108 
L 283.723464 35.012501 
L 284.055994 34.095576 
L 286.189729 34.862799 
L 287.159609 36.565661 
L 287.880091 35.573885 
L 288.074067 34.656959 
L 289.792139 36.640512 
L 290.069248 35.031214 
L 291.731899 34.170427 
L 292.590935 36.116555 
L 292.812622 33.440629 
L 293.006598 33.403203 
L 293.699369 33.571618 
L 295.916236 33.571618 
L 297.440333 35.180916 
L 299.324671 34.020725 
L 299.518647 34.133001 
L 299.851177 33.478054 
L 301.209008 34.020725 
L 301.59696 33.590331 
L 302.733105 33.590331 
L 303.287322 35.087353 
L 306.945154 38.268523 
L 308.192142 35.442895 
L 309.633106 34.675672 
L 309.743949 35.368044 
L 310.381299 35.368044 
L 312.542745 35.985565 
L 312.764431 35.143491 
L 315.67407 35.499033 
L 316.533106 37.5013 
L 318.140336 37.5013 
L 318.223468 35.499033 
L 318.528287 34.900225 
L 318.971661 34.862799 
L 320.384914 39.054459 
L 322.019854 43.339683 
L 323.460818 42.740875 
L 325.123469 47.194514 
L 325.400577 43.919779 
L 327.257204 46.240163 
L 327.728289 41.730385 
L 329.252385 45.622641 
L 330.859614 44.556013 
L 331.413831 39.503566 
L 331.441542 36.546948 
L 332.106602 36.546948 
L 333.519856 36.883778 
L 334.018651 38.998321 
L 337.482507 40.944449 
L 340.447567 44.46245 
L 340.558411 44.294035 
L 340.586121 44.33146 
L 341.057206 44.948982 
L 341.057206 40.270789 
L 341.777688 36.82764 
L 341.971664 36.790214 
L 343.329495 36.790214 
L 343.440339 36.546948 
L 343.578893 36.883778 
L 343.80058 35.424182 
L 344.659616 33.796171 
L 346.349978 33.871023 
L 347.680098 34.656959 
L 348.622267 34.656959 
L 348.816243 34.525969 
L 350.728291 34.226565 
L 350.756002 35.985565 
L 351.698171 33.796171 
L 353.3054 36.060416 
L 353.748774 36.022991 
L 353.915039 34.357555 
L 355.189738 34.507257 
L 355.356003 34.357555 
L 357.378895 33.72132 
L 359.540341 34.226565 
L 359.706606 38.474364 
L 360.122268 39.148023 
L 360.17769 36.022991 
L 360.260823 36.415959 
L 360.870461 34.170427 
L 364.029498 34.170427 
L 365.08251 34.357555 
L 366.551185 35.27448 
L 366.689739 34.975076 
L 367.964438 34.975076 
L 369.405402 35.27448 
L 370.707812 36.715363 
L 373.423475 38.530502 
L 373.811427 37.258034 
L 374.282511 34.713097 
L 374.698174 33.496767 
L 376.776487 37.183183 
L 377.219861 37.183183 
L 377.635524 35.180916 
L 379.409018 35.499033 
L 379.547572 34.226565 
L 379.658415 34.507257 
L 380.101789 33.871023 
L 381.43191 33.72132 
L 384.175283 33.72132 
L 384.70179 34.544682 
L 384.7295 34.002012 
L 388.082513 34.002012 
L 389.052392 33.871023 
L 389.30179 34.656959 
L 392.627092 36.565661 
L 393.375285 35.143491 
L 393.513839 35.143491 
L 395.121068 35.94814 
L 397.060827 35.94814 
L 397.753598 36.397246 
L 398.529502 36.397246 
L 399.222273 38.642779 
L 400.330707 39.297725 
L 400.496972 40.514055 
L 401.522274 39.297725 
L 401.827093 37.276746 
L 401.827093 38.399513 
L 402.38131 37.389023 
L 403.212635 37.781991 
L 403.517454 37.594864 
L 403.822274 35.517746 
L 404.598178 36.509523 
L 404.764443 36.079129 
L 405.817455 35.910714 
L 405.817455 34.93765 
L 406.815045 33.440629 
L 408.94878 33.814884 
L 409.91866 33.571618 
L 410.057214 33.871023 
L 414.435528 37.538725 
L 414.989745 36.191406 
L 416.818661 36.191406 
L 418.121071 38.006544 
L 418.592155 38.24981 
L 419.922276 36.079129 
L 420.365649 35.012501 
L 422.056011 35.087353 
L 422.305409 33.964586 
L 424.688541 35.012501 
L 424.827096 33.871023 
L 429.704205 36.378534 
L 432.946374 36.939917 
L 433.223482 36.266257 
L 433.888543 36.266257 
L 434.692157 34.806661 
L 435.911434 35.910714 
L 436.049989 34.73181 
L 436.964447 34.750523 
L 437.629507 36.640512 
L 438.294567 35.330619 
L 439.513844 34.376267 
L 441.01023 34.525969 
L 441.34276 34.207852 
L 441.564447 34.376267 
L 442.257218 33.889735 
L 442.9777 34.451118 
L 445.527098 34.956363 
L 445.998183 34.357555 
L 446.718665 34.020725 
L 448.603002 33.72132 
L 448.741556 34.020725 
L 449.074087 34.020725 
L 449.794569 33.571618 
L 449.988545 33.590331 
L 450.930713 33.478054 
L 451.706617 34.600821 
L 453.868063 35.442895 
L 454.560834 34.357555 
L 455.863244 33.571618 
L 457.775292 35.910714 
L 458.052401 35.517746 
L 458.523485 35.517746 
L 458.523485 34.451118 
L 458.939148 33.871023 
L 458.966859 34.076863 
L 459.022281 33.814884 
L 460.047582 34.39498 
L 460.29698 33.702608 
L 461.516257 33.702608 
L 461.571678 33.814884 
L 461.682522 33.440629 
L 461.876498 33.328352 
L 463.871679 33.85231 
L 464.093366 33.440629 
L 466.642763 33.440629 
L 467.030715 33.328352 
L 469.496981 33.702608 
L 470.79939 34.039437 
L 472.129511 35.012501 
L 473.182523 33.51548 
L 476.00903 34.020725 
L 476.230716 33.590331 
L 477.33915 33.51548 
L 478.724693 34.488544 
L 480.054813 35.031214 
L 482.327103 33.983299 
L 484.460838 33.814884 
L 485.070477 33.571618 
L 485.375296 34.020725 
L 487.093368 33.72132 
L 488.368067 33.72132 
L 488.894573 33.403203 
L 489.060838 33.814884 
L 490.640357 33.814884 
L 492.05361 34.73181 
L 492.441562 34.076863 
L 494.935538 35.012501 
L 495.351201 33.871023 
L 497.318671 35.012501 
L 497.817466 33.889735 
L 498.094575 33.871023 
L 499.424695 35.012501 
L 499.452406 35.311906 
L 499.868069 34.076863 
L 501.115057 34.582108 
L 501.253611 34.282703 
L 501.86325 34.282703 
L 501.974093 35.087353 
L 502.611443 34.881512 
L 503.221081 35.124778 
L 505.188551 35.124778 
L 505.825901 35.461608 
L 506.740359 37.16447 
L 506.934335 36.378534 
L 507.183732 37.276746 
L 507.183732 37.276746 
" clip-path="url(#pabb004f4d3)" style="fill: none; stroke: #1baf7a; stroke-width: 1.2; stroke-linecap: square"/>
   </g>
   <g id="patch_3">
    <path d="M 44.842109 204.917891 
L 44.842109 25.157422 
" style="fill: none; stroke: #52514e; stroke-width: 0.8; stroke-linejoin: miter; stroke-linecap: square"/>
   </g>
   <g id="patch_4">
    <path d="M 44.842109 204.917891 
L 529.2 204.917891 
" style="fill: none; stroke: #52514e; stroke-width: 0.8; stroke-linejoin: miter; stroke-linecap: square"/>
   </g>
   <g id="text_17">
    <!-- Plot 3 (E1): fairness over time -->
    <g style="fill: #0b0b0b" transform="translate(205.005742 19.157422) scale(0.11 -0.11)">
     <defs>
      <path id="DejaVuSans-33" d="M 1259 4147 
L 1259 2394 
L 2053 2394 
Q 2494 2394 2734 2622 
Q 2975 2850 2975 3272 
Q 2975 3691 2734 3919 
Q 2494 4147 2053 4147 
L 1259 4147 
z
M 628 4666 
L 2053 4666 
Q 2838 4666 3239 4311 
Q 3641 3956 3641 3272 
Q 3641 2581 3239 2228 
Q 2838 1875 2053 1875 
L 1259 1875 
L 1259 0 
L 628 0 
L 628 4666 
z
" transform="scale(0.015625)"/>
      <path id="DejaVuSans-16" d="M 2597 2516 
Q 3050 2419 3304 2112 
Q 3559 1806 3559 1356 
Q 3559 666 3084 287 
Q 2609 -91 1734 -91 
Q 1441 -91 1130 -33 
Q 819 25 488 141 
L 488 750 
Q 750 597 1062 519 
Q 1375 441 1716 441 
Q 2309 441 2620 675 
Q 2931 909 2931 1356 
Q 2931 1769 2642 2001 
Q 2353 2234 1838 2234 
L 1294 2234 
L 1294 2753 
L 1863 2753 
Q 2328 2753 2575 2939 
Q 2822 3125 2822 3475 
Q 2822 3834 2567 4026 
Q 2313 4219 1838 4219 
Q 1578 4219 1281 4162 
Q 984 4106 628 3988 
L 628 4550 
Q 988 4650 1302 4700 
Q 1616 4750 1894 4750 
Q 2613 4750 3031 4423 
Q 3450 4097 3450 3541 
Q 3450 3153 3228 2886 
Q 3006 2619 2597 2516 
z
" transform="scale(0.015625)"/>
      <path id="DejaVuSans-28" d="M 628 4666 
L 3578 4666 
L 3578 4134 
L 1259 4134 
L 1259 2753 
L 3481 2753 
L 3481 2222 
L 1259 2222 
L 1259 531 
L 3634 531 
L 3634 0 
L 628 0 
L 628 4666 
z
" transform="scale(0.015625)"/>
      <path id="DejaVuSans-1d" d="M 750 794 
L 1409 794 
L 1409 0 
L 750 0 
L 750 794 
z
M 750 3309 
L 1409 3309 
L 1409 2516 
L 750 2516 
L 750 3309 
z
" transform="scale(0.015625)"/>
      <path id="DejaVuSans-59" d="M 191 3500 
L 800 3500 
L 1894 563 
L 2988 3500 
L 3597 3500 
L 2284 0 
L 1503 0 
L 191 3500 
z
" transform="scale(0.015625)"/>
     </defs>
     <use xlink:href="#DejaVuSans-33"/>
     <use xlink:href="#DejaVuSans-4f" transform="translate(60.296875 0)"/>
     <use xlink:href="#DejaVuSans-52" transform="translate(88.078125 0)"/>
     <use xlink:href="#DejaVuSans-57" transform="translate(149.265625 0)"/>
     <use xlink:href="#DejaVuSans-3" transform="translate(188.46875 0)"/>
     <use xlink:href="#DejaVuSans-16" transform="translate(220.25 0)"/>
     <use xlink:href="#DejaVuSans-3" transform="translate(283.875 0)"/>
     <use xlink:href="#DejaVuSans-b" transform="translate(315.65625 0)"/>
     <use xlink:href="#DejaVuSans-28" transform="translate(354.671875 0)"/>
     <use xlink:href="#DejaVuSans-14" transform="translate(417.859375 0)"/>
     <use xlink:href="#DejaVuSans-c" transform="translate(481.484375 0)"/>
     <use xlink:href="#DejaVuSans-1d" transform="translate(520.5 0)"/>
     <use xlink:href="#DejaVuSans-3" transform="translate(554.1875 0)"/>
     <use xlink:href="#DejaVuSans-49" transform="translate(585.96875 0)"/>
     <use xlink:href="#DejaVuSans-44" transform="translate(621.171875 0)"/>
     <use xlink:href="#DejaVuSans-4c" transform="translate(682.453125 0)"/>
     <use xlink:href="#DejaVuSans-55" transform="translate(710.234375 0)"/>
     <use xlink:href="#DejaVuSans-51" transform="translate(749.59375 0)"/>
     <use xlink:href="#DejaVuSans-48" transform="translate(812.96875 0)"/>
     <use xlink:href="#DejaVuSans-56" transform="translate(874.5 0)"/>
     <use xlink:href="#DejaVuSans-56" transform="translate(926.59375 0)"/>
     <use xlink:href="#DejaVuSans-3" transform="translate(978.6875 0)"/>
     <use xlink:href="#DejaVuSans-52" transform="translate(1010.46875 0)"/>
     <use xlink:href="#DejaVuSans-59" transform="translate(1071.65625 0)"/>
     <use xlink:href="#DejaVuSans-48" transform="translate(1130.84375 0)"/>
     <use xlink:href="#DejaVuSans-55" transform="translate(1192.375 0)"/>
     <use xlink:href="#DejaVuSans-3" transform="translate(1233.484375 0)"/>
     <use xlink:href="#DejaVuSans-57" transform="translate(1265.265625 0)"/>
     <use xlink:href="#DejaVuSans-4c" transform="translate(1304.46875 0)"/>
     <use xlink:href="#DejaVuSans-50" transform="translate(1332.25 0)"/>
     <use xlink:href="#DejaVuSans-48" transform="translate(1429.65625 0)"/>
    </g>
   </g>
   <g id="legend_1">
    <g id="line2d_32">
     <path d="M 266.60625 192.996016 
L 274.60625 192.996016 
L 282.60625 192.996016 
" style="fill: none; stroke: #2a78d6; stroke-width: 1.2; stroke-linecap: square"/>
    </g>
    <g id="text_18">
     <!-- random -->
     <g transform="translate(289.00625 195.796016) scale(0.08 -0.08)">
      <use xlink:href="#DejaVuSans-55"/>
      <use xlink:href="#DejaVuSans-44" transform="translate(41.109375 0)"/>
      <use xlink:href="#DejaVuSans-51" transform="translate(102.390625 0)"/>
      <use xlink:href="#DejaVuSans-47" transform="translate(165.765625 0)"/>
      <use xlink:href="#DejaVuSans-52" transform="translate(229.25 0)"/>
      <use xlink:href="#DejaVuSans-50" transform="translate(290.4375 0)"/>
     </g>
    </g>
    <g id="line2d_33">
     <path d="M 336.03375 192.996016 
L 344.03375 192.996016 
L 352.03375 192.996016 
" style="fill: none; stroke: #eb6834; stroke-width: 1.2; stroke-linecap: square"/>
    </g>
    <g id="text_19">
     <!-- round_robin -->
     <g transform="translate(358.43375 195.796016) scale(0.08 -0.08)">
      <defs>
       <path id="DejaVuSans-42" d="M 3263 -1063 
L 3263 -1509 
L -63 -1509 
L -63 -1063 
L 3263 -1063 
z
" transform="scale(0.015625)"/>
       <path id="DejaVuSans-45" d="M 3116 1747 
Q 3116 2381 2855 2742 
Q 2594 3103 2138 3103 
Q 1681 3103 1420 2742 
Q 1159 2381 1159 1747 
Q 1159 1113 1420 752 
Q 1681 391 2138 391 
Q 2594 391 2855 752 
Q 3116 1113 3116 1747 
z
M 1159 2969 
Q 1341 3281 1617 3432 
Q 1894 3584 2278 3584 
Q 2916 3584 3314 3078 
Q 3713 2572 3713 1747 
Q 3713 922 3314 415 
Q 2916 -91 2278 -91 
Q 1894 -91 1617 61 
Q 1341 213 1159 525 
L 1159 0 
L 581 0 
L 581 4863 
L 1159 4863 
L 1159 2969 
z
" transform="scale(0.015625)"/>
      </defs>
      <use xlink:href="#DejaVuSans-55"/>
      <use xlink:href="#DejaVuSans-52" transform="translate(38.90625 0)"/>
      <use xlink:href="#DejaVuSans-58" transform="translate(100.09375 0)"/>
      <use xlink:href="#DejaVuSans-51" transform="translate(163.46875 0)"/>
      <use xlink:href="#DejaVuSans-47" transform="translate(226.84375 0)"/>
      <use xlink:href="#DejaVuSans-42" transform="translate(290.328125 0)"/>
      <use xlink:href="#DejaVuSans-55" transform="translate(340.328125 0)"/>
      <use xlink:href="#DejaVuSans-52" transform="translate(379.234375 0)"/>
      <use xlink:href="#DejaVuSans-45" transform="translate(440.421875 0)"/>
      <use xlink:href="#DejaVuSans-4c" transform="translate(503.90625 0)"/>
      <use xlink:href="#DejaVuSans-51" transform="translate(531.6875 0)"/>
     </g>
    </g>
    <g id="line2d_34">
     <path d="M 422.03875 192.996016 
L 430.03875 192.996016 
L 438.03875 192.996016 
" style="fill: none; stroke: #1baf7a; stroke-width: 1.2; stroke-linecap: square"/>
    </g>
    <g id="text_20">
     <!-- least_loaded_agent -->
     <g transform="translate(444.43875 195.796016) scale(0.08 -0.08)">
      <defs>
       <path id="DejaVuSans-4a" d="M 2906 1791 
Q 2906 2416 2648 2759 
Q 2391 3103 1925 3103 
Q 1463 3103 1205 2759 
Q 947 2416 947 1791 
Q 947 1169 1205 825 
Q 1463 481 1925 481 
Q 2391 481 2648 825 
Q 2906 1169 2906 1791 
z
M 3481 434 
Q 3481 -459 3084 -895 
Q 2688 -1331 1869 -1331 
Q 1566 -1331 1297 -1286 
Q 1028 -1241 775 -1147 
L 775 -588 
Q 1028 -725 1275 -790 
Q 1522 -856 1778 -856 
Q 2344 -856 2625 -561 
Q 2906 -266 2906 331 
L 2906 616 
Q 2728 306 2450 153 
Q 2172 0 1784 0 
Q 1141 0 747 490 
Q 353 981 353 1791 
Q 353 2603 747 3093 
Q 1141 3584 1784 3584 
Q 2172 3584 2450 3431 
Q 2728 3278 2906 2969 
L 2906 3500 
L 3481 3500 
L 3481 434 
z
" transform="scale(0.015625)"/>
      </defs>
      <use xlink:href="#DejaVuSans-4f"/>
      <use xlink:href="#DejaVuSans-48" transform="translate(27.78125 0)"/>
      <use xlink:href="#DejaVuSans-44" transform="translate(89.3125 0)"/>
      <use xlink:href="#DejaVuSans-56" transform="translate(150.59375 0)"/>
      <use xlink:href="#DejaVuSans-57" transform="translate(202.6875 0)"/>
      <use xlink:href="#DejaVuSans-42" transform="translate(241.890625 0)"/>
      <use xlink:href="#DejaVuSans-4f" transform="translate(291.890625 0)"/>
      <use xlink:href="#DejaVuSans-52" transform="translate(319.671875 0)"/>
      <use xlink:href="#DejaVuSans-44" transform="translate(380.859375 0)"/>
      <use xlink:href="#DejaVuSans-47" transform="translate(442.140625 0)"/>
      <use xlink:href="#DejaVuSans-48" transform="translate(505.625 0)"/>
      <use xlink:href="#DejaVuSans-47" transform="translate(567.15625 0)"/>
      <use xlink:href="#DejaVuSans-42" transform="translate(630.640625 0)"/>
      <use xlink:href="#DejaVuSans-44" transform="translate(680.640625 0)"/>
      <use xlink:href="#DejaVuSans-4a" transform="translate(741.921875 0)"/>
      <use xlink:href="#DejaVuSans-48" transform="translate(805.40625 0)"/>
      <use xlink:href="#DejaVuSans-51" transform="translate(866.9375 0)"/>
      <use xlink:href="#DejaVuSans-57" transform="translate(930.3125 0)"/>
     </g>
    </g>
   </g>
  </g>
 </g>
 <defs>
  <clipPath id="pabb004f4d3">
   <rect x="44.842109" y="25.157422" width="484.357891" height="179.760469"/>
  </clipPath>
 </defs>
</svg>
